<svg width="48" height="48" viewBox="0 0 48 48" fill="none" xmlns="http://www.w3.org/2000/svg">
<g clip-path="url(#clip0_1215_43711)">
<path fill-rule="evenodd" clip-rule="evenodd" d="M12 24.4998C12 25.326 12.6738 25.9998 13.5 25.9998C14.3262 25.9998 15 25.326 15 24.4998C15 23.6736 14.3262 22.9998 13.5 22.9998C12.6738 22.9998 12 23.6736 12 24.4998Z" stroke="#005AA0" stroke-width="2"/>
<path fill-rule="evenodd" clip-rule="evenodd" d="M33.0001 24.4998C33.0001 25.326 33.6739 25.9998 34.5001 25.9998C35.3264 25.9998 36.0001 25.326 36.0001 24.4998C36.0001 23.6736 35.3264 22.9998 34.5001 22.9998C33.6739 22.9998 33.0001 23.6736 33.0001 24.4998Z" stroke="#005AA0" stroke-width="2"/>
<path d="M15 18.027V20.027H34.8581L31.3035 14.4708L29.6187 15.5486L31.2043 18.027H15Z" fill="#005AA0"/>
<path fill-rule="evenodd" clip-rule="evenodd" d="M41.0001 22C41.0001 22.025 40.6671 22.033 40.2221 22.033C39.3331 22.033 38.0001 22 38.0001 22L39.0441 26L39.0001 29H35.0001V31H39.0001V33H38.0001V36H35.0001V33H13.0001V36H10.0001V33H9.00011V31H26.0001V29H9.00011V26L10.0001 22C10.0001 22 8.66711 22.033 7.77811 22.033C7.33311 22.033 7.00011 22.025 7.00011 22V21C7.00011 20.032 11.0001 20 11.0001 20L15.0001 14C15.0001 14 15.9999 12.0046 24 12C32.0208 12 33.0001 14 33.0001 14L37.0001 20C37.0001 20 41.0001 20.032 41.0001 21V22ZM34.6641 13C33.8542 11.7917 31.6667 10 24 10C17.375 10.004 14.125 11.6875 13.2321 13C12.3392 14.3125 9.91711 18.019 9.91711 18.019C7.74883 18.0883 5.00011 18.661 5.00011 21V22C5.00011 22.672 5.44911 23.961 7.14711 24.025C7.22711 24.028 7.32311 24.03 7.43111 24.031L7.06011 25.515L7.00011 25.754V26V29V31V33C7.00011 33.7553 7.38246 34.4125 8.00001 34.7528L8.00011 36C8.00011 37.105 8.89511 38 10.0001 38H13.0001C14.1051 38 15.0001 37.105 15.0001 36V35H33.0001V36C33.0001 37.105 33.8951 38 35.0001 38H38.0001C39.1051 38 40.0001 37.105 40.0001 36L40 34.7155C40.5818 34.3658 41.0001 33.7286 41.0001 33V31C41.0001 30.96 40.9901 30.922 40.9881 30.882L41.0001 29.013L41 26.013V25.749L40.95 25.495L40.5691 24.031C40.6771 24.03 40.7731 24.028 40.8531 24.025C42.5511 23.961 43.0001 22.672 43.0001 22V21C43.0001 18.661 40.3156 18.0903 38.0831 18.019L34.6641 13Z" fill="#005AA0"/>
<path d="M28.0001 31H33.0001V29H28.0001V31Z" fill="#E30613"/>
</g>
<defs>
<clipPath id="clip0_1215_43711">
<rect width="48" height="48" fill="white"/>
</clipPath>
</defs>
</svg>
