<svg width="48" height="48" viewBox="0 0 48 48" fill="none" xmlns="http://www.w3.org/2000/svg">
<g clip-path="url(#clip0_1215_43707)">
<path d="M24.0048 10.2589L41.3924 23.5592L42.6076 21.9706L24.0051 7.74109L5.39265 21.9705L6.60735 23.5593L24.0048 10.2589Z" fill="#005AA0"/>
<path d="M24.0008 15.2589L26.9924 17.5472L28.2076 15.9587L24.0012 12.7411L19.7926 15.9585L21.0073 17.5474L24.0008 15.2589Z" fill="#E30613"/>
<path d="M31 25V36H33V23H25V36H27V25H31Z" fill="#005AA0"/>
<path d="M21 29V25H17V29H21ZM15 23H23V31H15V23Z" fill="#005AA0"/>
<path d="M10 19V37H12V19H10Z" fill="#005AA0"/>
<path d="M36 19V37H38V19H36Z" fill="#005AA0"/>
<path d="M5 38H17V36H5V38Z" fill="#005AA0"/>
<path d="M22 38H43V36H22V38Z" fill="#005AA0"/>
</g>
<defs>
<clipPath id="clip0_1215_43707">
<rect width="48" height="48" fill="white"/>
</clipPath>
</defs>
</svg>
