<svg width="1872" height="131" viewBox="0 0 1872 131" fill="none" xmlns="http://www.w3.org/2000/svg">
<path d="M1872 106.5C1865.37 106.5 1860 118.5 1860 118.5C1860 118.5 1854.63 130.5 1848 130.5C1841.37 130.5 1836 118.5 1836 118.5C1836 118.5 1830.63 106.5 1824 106.5C1817.37 106.5 1812 118.5 1812 118.5C1812 118.5 1806.63 130.5 1800 130.5C1793.37 130.5 1788 118.5 1788 118.5C1788 118.5 1782.63 106.5 1776 106.5C1769.37 106.5 1764 118.5 1764 118.5C1764 118.5 1758.63 130.5 1752 130.5C1745.37 130.5 1740 118.5 1740 118.5C1740 118.5 1734.63 106.5 1728 106.5C1721.37 106.5 1716 118.5 1716 118.5C1716 118.5 1710.63 130.5 1704 130.5C1697.37 130.5 1692 118.5 1692 118.5C1692 118.5 1686.63 106.5 1680 106.5C1673.37 106.5 1668 118.5 1668 118.5C1668 118.5 1662.63 130.5 1656 130.5C1649.37 130.5 1644 118.5 1644 118.5C1644 118.5 1638.63 106.5 1632 106.5C1625.37 106.5 1620 118.5 1620 118.5C1620 118.5 1614.63 130.5 1608 130.5C1601.37 130.5 1596 118.5 1596 118.5C1596 118.5 1590.63 106.5 1584 106.5C1577.37 106.5 1572 118.5 1572 118.5C1572 118.5 1566.63 130.5 1560 130.5C1553.37 130.5 1548 118.5 1548 118.5C1548 118.5 1542.63 106.5 1536 106.5C1529.37 106.5 1524 118.5 1524 118.5C1524 118.5 1518.63 130.5 1512 130.5C1505.37 130.5 1500 118.5 1500 118.5C1500 118.5 1494.63 106.5 1488 106.5C1481.37 106.5 1476 118.5 1476 118.5C1476 118.5 1470.63 130.5 1464 130.5C1457.37 130.5 1452 118.5 1452 118.5C1452 118.5 1446.63 106.5 1440 106.5C1433.37 106.5 1428 118.5 1428 118.5C1428 118.5 1422.63 130.5 1416 130.5C1409.37 130.5 1404 118.5 1404 118.5C1404 118.5 1398.63 106.5 1392 106.5C1385.37 106.5 1380 118.5 1380 118.5C1380 118.5 1374.63 130.5 1368 130.5C1361.37 130.5 1356 118.5 1356 118.5C1356 118.5 1350.63 106.5 1344 106.5C1337.37 106.5 1332 118.5 1332 118.5C1332 118.5 1326.63 130.5 1320 130.5C1313.37 130.5 1308 118.5 1308 118.5C1308 118.5 1302.63 106.5 1296 106.5C1289.37 106.5 1284 118.5 1284 118.5C1284 118.5 1278.63 130.5 1272 130.5C1265.37 130.5 1260 118.5 1260 118.5C1260 118.5 1254.63 106.5 1248 106.5C1241.37 106.5 1236 118.5 1236 118.5C1236 118.5 1230.63 130.5 1224 130.5C1217.37 130.5 1212 118.5 1212 118.5C1212 118.5 1206.63 106.5 1200 106.5C1193.37 106.5 1188 118.5 1188 118.5C1188 118.5 1182.63 130.5 1176 130.5C1169.37 130.5 1164 118.5 1164 118.5C1164 118.5 1158.63 106.5 1152 106.5C1145.37 106.5 1140 118.5 1140 118.5C1140 118.5 1134.63 130.5 1128 130.5C1121.37 130.5 1116 118.5 1116 118.5C1116 118.5 1110.63 106.5 1104 106.5C1097.37 106.5 1092 118.5 1092 118.5C1092 118.5 1086.63 130.5 1080 130.5C1073.37 130.5 1068 118.5 1068 118.5C1068 118.5 1062.63 106.5 1056 106.5C1049.37 106.5 1044 118.5 1044 118.5C1044 118.5 1038.63 130.5 1032 130.5C1025.37 130.5 1020 118.5 1020 118.5C1020 118.5 1014.63 106.5 1008 106.5C1001.37 106.5 996 118.5 996 118.5C996 118.5 990.627 130.5 984 130.5C977.373 130.5 972 118.5 972 118.5C972 118.5 966.627 106.5 960 106.5C953.373 106.5 948 118.5 948 118.5C948 118.5 942.627 130.5 936 130.5C929.373 130.5 924 118.5 924 118.5C924 118.5 918.627 106.5 912 106.5C905.373 106.5 900 118.5 900 118.5C900 118.5 894.627 130.5 888 130.5C881.373 130.5 876 118.5 876 118.5C876 118.5 870.627 106.5 864 106.5C857.373 106.5 852 118.5 852 118.5C852 118.5 846.627 130.5 840 130.5C833.373 130.5 828 118.5 828 118.5C828 118.5 822.627 106.5 816 106.5C809.373 106.5 804 118.5 804 118.5C804 118.5 798.627 130.5 792 130.5C785.373 130.5 780 118.5 780 118.5C780 118.5 774.627 106.5 768 106.5C761.373 106.5 756 118.5 756 118.5C756 118.5 750.627 130.5 744 130.5C737.373 130.5 732 118.5 732 118.5C732 118.5 726.627 106.5 720 106.5C713.373 106.5 708 118.5 708 118.5C708 118.5 702.627 130.5 696 130.5C689.373 130.5 684 118.5 684 118.5C684 118.5 678.627 106.5 672 106.5C665.373 106.5 660 118.5 660 118.5C660 118.5 654.627 130.5 648 130.5C641.373 130.5 636 118.5 636 118.5C636 118.5 630.627 106.5 624 106.5C617.373 106.5 612 118.5 612 118.5C612 118.5 606.627 130.5 600 130.5C593.373 130.5 588 118.5 588 118.5C588 118.5 582.627 106.5 576 106.5C569.373 106.5 564 118.5 564 118.5C564 118.5 558.627 130.5 552 130.5C545.373 130.5 540 118.5 540 118.5C540 118.5 534.627 106.5 528 106.5C521.373 106.5 516 118.5 516 118.5C516 118.5 510.627 130.5 504 130.5C497.373 130.5 492 118.5 492 118.5C492 118.5 486.627 106.5 480 106.5C473.373 106.5 468 118.5 468 118.5C468 118.5 462.627 130.5 456 130.5C449.373 130.5 444 118.5 444 118.5C444 118.5 438.627 106.5 432 106.5C425.373 106.5 420 118.5 420 118.5C420 118.5 414.627 130.5 408 130.5C401.373 130.5 396 118.5 396 118.5C396 118.5 390.627 106.5 384 106.5C377.373 106.5 372 118.5 372 118.5C372 118.5 366.627 130.5 360 130.5C353.373 130.5 348 118.5 348 118.5C348 118.5 342.627 106.5 336 106.5C329.373 106.5 324 118.5 324 118.5C324 118.5 318.627 130.5 312 130.5C305.373 130.5 300 118.5 300 118.5C300 118.5 294.627 106.5 288 106.5C281.373 106.5 276 118.5 276 118.5C276 118.5 270.627 130.5 264 130.5C257.373 130.5 252 118.5 252 118.5C252 118.5 246.627 106.5 240 106.5C233.373 106.5 228 118.5 228 118.5C228 118.5 222.627 130.5 216 130.5C209.373 130.5 204 118.5 204 118.5C204 118.5 198.627 106.5 192 106.5C185.373 106.5 180 118.5 180 118.5C180 118.5 174.627 130.5 168 130.5C161.373 130.5 156 118.5 156 118.5C156 118.5 150.627 106.5 144 106.5C137.373 106.5 132 118.5 132 118.5C132 118.5 126.627 130.5 120 130.5C113.373 130.5 108 118.5 108 118.5C108 118.5 102.627 106.5 96 106.5C89.3726 106.5 84 118.5 84 118.5C84 118.5 78.6274 130.5 72 130.5C65.3726 130.5 60 118.5 60 118.5C60 118.5 54.6274 106.5 48 106.5C41.3726 106.5 36 118.5 36 118.5C36 118.5 30.6274 130.5 24 130.5C17.3726 130.5 12 118.5 12 118.5C12 118.5 6.62744 106.5 2.09815e-06 106.5L1.14087e-05 -0.000163655L1872 0L1872 106.5Z" fill="white"/>
</svg>
