<svg width="1872" height="131" viewBox="0 0 1872 131" fill="none" xmlns="http://www.w3.org/2000/svg">
<path d="M0 24C6.62742 24 12 12 12 12C12 12 17.3726 0 24 0C30.6274 0 36 12 36 12C36 12 41.3726 24 48 24C54.6274 24 60 12 60 12C60 12 65.3726 0 72 0C78.6274 0 84 12 84 12C84 12 89.3726 24 96 24C102.627 24 108 12 108 12C108 12 113.373 0 120 0C126.627 0 132 12 132 12C132 12 137.373 24 144 24C150.627 24 156 12 156 12C156 12 161.373 0 168 0C174.627 0 180 12 180 12C180 12 185.373 24 192 24C198.627 24 204 12 204 12C204 12 209.373 0 216 0C222.627 0 228 12 228 12C228 12 233.373 24 240 24C246.627 24 252 12 252 12C252 12 257.373 0 264 0C270.627 0 276 12 276 12C276 12 281.373 24 288 24C294.627 24 300 12 300 12C300 12 305.373 0 312 0C318.627 0 324 12 324 12C324 12 329.373 24 336 24C342.627 24 348 12 348 12C348 12 353.373 0 360 0C366.627 0 372 12 372 12C372 12 377.373 24 384 24C390.627 24 396 12 396 12C396 12 401.373 0 408 0C414.627 0 420 12 420 12C420 12 425.373 24 432 24C438.627 24 444 12 444 12C444 12 449.373 0 456 0C462.627 0 468 12 468 12C468 12 473.373 24 480 24C486.627 24 492 12 492 12C492 12 497.373 0 504 0C510.627 0 516 12 516 12C516 12 521.373 24 528 24C534.627 24 540 12 540 12C540 12 545.373 0 552 0C558.627 0 564 12 564 12C564 12 569.373 24 576 24C582.627 24 588 12 588 12C588 12 593.373 0 600 0C606.627 0 612 12 612 12C612 12 617.373 24 624 24C630.627 24 636 12 636 12C636 12 641.373 0 648 0C654.627 0 660 12 660 12C660 12 665.373 24 672 24C678.627 24 684 12 684 12C684 12 689.373 0 696 0C702.627 0 708 12 708 12C708 12 713.373 24 720 24C726.627 24 732 12 732 12C732 12 737.373 0 744 0C750.627 0 756 12 756 12C756 12 761.373 24 768 24C774.627 24 780 12 780 12C780 12 785.373 0 792 0C798.627 0 804 12 804 12C804 12 809.373 24 816 24C822.627 24 828 12 828 12C828 12 833.373 0 840 0C846.627 0 852 12 852 12C852 12 857.373 24 864 24C870.627 24 876 12 876 12C876 12 881.373 0 888 0C894.627 0 900 12 900 12C900 12 905.373 24 912 24C918.627 24 924 12 924 12C924 12 929.373 0 936 0C942.627 0 948 12 948 12C948 12 953.373 24 960 24C966.627 24 972 12 972 12C972 12 977.373 0 984 0C990.627 0 996 12 996 12C996 12 1001.37 24 1008 24C1014.63 24 1020 12 1020 12C1020 12 1025.37 0 1032 0C1038.63 0 1044 12 1044 12C1044 12 1049.37 24 1056 24C1062.63 24 1068 12 1068 12C1068 12 1073.37 0 1080 0C1086.63 0 1092 12 1092 12C1092 12 1097.37 24 1104 24C1110.63 24 1116 12 1116 12C1116 12 1121.37 0 1128 0C1134.63 0 1140 12 1140 12C1140 12 1145.37 24 1152 24C1158.63 24 1164 12 1164 12C1164 12 1169.37 0 1176 0C1182.63 0 1188 12 1188 12C1188 12 1193.37 24 1200 24C1206.63 24 1212 12 1212 12C1212 12 1217.37 0 1224 0C1230.63 0 1236 12 1236 12C1236 12 1241.37 24 1248 24C1254.63 24 1260 12 1260 12C1260 12 1265.37 0 1272 0C1278.63 0 1284 12 1284 12C1284 12 1289.37 24 1296 24C1302.63 24 1308 12 1308 12C1308 12 1313.37 0 1320 0C1326.63 0 1332 12 1332 12C1332 12 1337.37 24 1344 24C1350.63 24 1356 12 1356 12C1356 12 1361.37 0 1368 0C1374.63 0 1380 12 1380 12C1380 12 1385.37 24 1392 24C1398.63 24 1404 12 1404 12C1404 12 1409.37 0 1416 0C1422.63 0 1428 12 1428 12C1428 12 1433.37 24 1440 24C1446.63 24 1452 12 1452 12C1452 12 1457.37 0 1464 0C1470.63 0 1476 12 1476 12C1476 12 1481.37 24 1488 24C1494.63 24 1500 12 1500 12C1500 12 1505.37 0 1512 0C1518.63 0 1524 12 1524 12C1524 12 1529.37 24 1536 24C1542.63 24 1548 12 1548 12C1548 12 1553.37 0 1560 0C1566.63 0 1572 12 1572 12C1572 12 1577.37 24 1584 24C1590.63 24 1596 12 1596 12C1596 12 1601.37 0 1608 0C1614.63 0 1620 12 1620 12C1620 12 1625.37 24 1632 24C1638.63 24 1644 12 1644 12C1644 12 1649.37 0 1656 0C1662.63 0 1668 12 1668 12C1668 12 1673.37 24 1680 24C1686.63 24 1692 12 1692 12C1692 12 1697.37 0 1704 0C1710.63 0 1716 12 1716 12C1716 12 1721.37 24 1728 24C1734.63 24 1740 12 1740 12C1740 12 1745.37 0 1752 0C1758.63 0 1764 12 1764 12C1764 12 1769.37 24 1776 24C1782.63 24 1788 12 1788 12C1788 12 1793.37 0 1800 0C1806.63 0 1812 12 1812 12C1812 12 1817.37 24 1824 24C1830.63 24 1836 12 1836 12C1836 12 1841.37 0 1848 0C1854.63 0 1860 12 1860 12C1860 12 1865.37 24 1872 24V130.5H0V24Z" fill="white"/>
</svg>
