<svg width="40" height="40" viewBox="0 0 40 40" fill="none" xmlns="http://www.w3.org/2000/svg">
<path d="M24.7405 2.36525L24.9146 2.40988L25.0717 2.45876C27.0154 3.12697 28.1408 5.16429 27.672 7.16518L27.6198 7.3651C27.0525 9.33447 25.109 10.5336 23.1357 10.2183L23.1275 10.2475C22.0592 9.95969 20.951 9.81214 19.8243 9.81214C12.8283 9.81214 7.15625 15.484 7.15625 22.4801C7.15625 29.4757 12.8284 35.1475 19.8243 35.1475C26.8204 35.1475 32.4916 29.4761 32.4916 22.4801C32.4916 18.4705 30.6168 14.777 27.4962 12.3992L27.2091 12.1867L28.3766 10.5628C32.1861 13.3014 34.4916 17.6983 34.4916 22.4801C34.4916 30.5806 27.9249 37.1475 19.8243 37.1475C11.7239 37.1475 5.15625 30.5803 5.15625 22.4801C5.15625 14.3795 11.7238 7.81214 19.8243 7.81214C20.9644 7.81214 22.0892 7.94294 23.1817 8.19898L23.2013 8.20329L23.2058 8.18845C24.2745 8.49672 25.39 7.88034 25.698 6.81113C25.9923 5.79089 25.4439 4.72764 24.4639 4.36532L24.3566 4.32988L24.2665 4.31094C23.8967 4.25528 23.5312 4.41773 23.4201 4.61258L23.3947 4.67182C23.2672 5.11524 23.4533 5.39403 24.2085 5.26663L24.3569 5.23792L24.78 7.19264C22.309 7.72762 20.9464 5.94916 21.4729 4.118C21.851 2.80882 23.3475 2.06902 24.7405 2.36525ZM20.9799 28.8652L22.3937 30.2798C21.2024 31.4705 19.6089 32.1157 17.9554 32.1157C16.3983 32.1157 14.8958 31.5445 13.7312 30.4841L13.5169 30.2796L14.9311 28.8654C15.7432 29.6774 16.8258 30.1157 17.9554 30.1157C19.0036 30.1157 20.0126 29.7374 20.8018 29.0334L20.9799 28.8652ZM16.6278 22.1758L16.6407 22.3467L14.6429 22.4397C14.6193 21.9344 14.1906 21.544 13.6849 21.5675C13.2157 21.5894 12.8455 21.9606 12.8139 22.4184L12.8127 22.5255L10.8149 22.6185C10.74 21.0096 11.983 19.6446 13.5919 19.5697C15.1433 19.4975 16.468 20.6507 16.6278 22.1758ZM24.8426 21.8685L24.8555 22.0394L22.8577 22.1324C22.8342 21.6271 22.4054 21.2367 21.8997 21.2602C21.4306 21.282 21.0606 21.6531 21.0292 22.1106L21.0281 22.2176L19.0303 22.3117C18.9545 20.7026 20.1976 19.3372 21.8067 19.2624C23.3582 19.1902 24.6828 20.3434 24.8426 21.8685Z" fill="#005AA0"/>
</svg>
