<svg width="40" height="40" viewBox="0 0 40 40" fill="none" xmlns="http://www.w3.org/2000/svg">
<path d="M23.9423 12.8148C23.9423 17.129 20.414 20.6296 16.0577 20.6296C11.7014 20.6296 8.17308 17.129 8.17308 12.8148C8.17308 8.50058 11.7014 5 16.0577 5C18.3908 5 20.5558 6.00883 22.0453 7.73013L23.5577 6.42141C21.6917 4.26508 18.9768 3 16.0577 3C10.6003 3 6.17308 7.39247 6.17308 12.8148C6.17308 18.2372 10.6003 22.6296 16.0577 22.6296C21.5151 22.6296 25.9423 18.2372 25.9423 12.8148C25.9423 12.1837 25.8822 11.5597 25.7637 10.9489L25.6067 10.1393H24.782C20.1625 10.1393 20.1625 10.1393 17.8579 10.1393C16.5508 10.1393 15.0702 9.06579 14.335 7.54199L12.5337 8.41102C13.5826 10.5853 15.7261 12.1393 17.8579 12.1393C20.008 12.1393 20.1521 12.1393 23.9133 12.1393C23.9326 12.3629 23.9423 12.5882 23.9423 12.8148Z" fill="#005AA0"/>
<path d="M32.3706 29.2046C34.5844 29.9477 36 31.7704 36 34V38H38V34C38 30.8798 36.009 28.3162 33.0071 27.3086L32.3706 29.2046Z" fill="#005AA0"/>
<path d="M20 38V34C20 31.845 21.5567 29.9799 23.856 29.206L23.218 27.3105C20.1538 28.3419 18 30.9223 18 34V38H20Z" fill="#005AA0"/>
<path d="M28.1154 31.4444C31.8203 31.4444 34.8269 28.4615 34.8269 24.7778C34.8269 21.0941 31.8203 18.1111 28.1154 18.1111C24.4105 18.1111 21.4038 21.0941 21.4038 24.7778C21.4038 28.4615 24.4105 31.4444 28.1154 31.4444ZM28.1154 29.4444C25.5115 29.4444 23.4038 27.3533 23.4038 24.7778C23.4038 22.2022 25.5115 20.1111 28.1154 20.1111C30.7193 20.1111 32.8269 22.2022 32.8269 24.7778C32.8269 27.3533 30.7193 29.4444 28.1154 29.4444Z" fill="#005AA0"/>
<path d="M4 38C4 29.3748 4 29.3748 4 26C4 23.7038 5.74352 21.6697 9.43221 19.9018L8.56779 18.0982C4.25648 20.1646 2 22.7971 2 26C2 29.3748 2 29.3748 2 38H4Z" fill="#005AA0"/>
</svg>
