<svg width="40" height="40" viewBox="0 0 40 40" fill="none" xmlns="http://www.w3.org/2000/svg">
<path d="M12 2H28C29.6569 2 31 3.34315 31 5V35C31 36.6569 29.6569 38 28 38H12C10.3431 38 9 36.6569 9 35V5C9 3.34315 10.3431 2 12 2ZM12 4C11.4477 4 11 4.44772 11 5V35C11 35.5523 11.4477 36 12 36H28C28.5523 36 29 35.5523 29 35V5C29 4.44772 28.5523 4 28 4H12Z" fill="#005AA0"/>
<path d="M20 35C20.8284 35 21.5 34.3284 21.5 33.5C21.5 32.6716 20.8284 32 20 32C19.1716 32 18.5 32.6716 18.5 33.5C18.5 34.3284 19.1716 35 20 35Z" fill="#005AA0"/>
<path d="M10 31H29V29H10V31Z" fill="#005AA0"/>
<path d="M10 8H29V6H10V8Z" fill="#005AA0"/>
</svg>
