<svg width="40" height="40" viewBox="0 0 40 40" fill="none" xmlns="http://www.w3.org/2000/svg">
<path d="M25 9H22V11H25V9Z" fill="#005AA0"/>
<path d="M38 9H35V11H38V9Z" fill="#005AA0"/>
<path d="M31 5V2H29V5H31Z" fill="#005AA0"/>
<path d="M31 18V15H29V18H31Z" fill="#005AA0"/>
<path d="M34.2426 7.17157L36.364 5.05025L34.9497 3.63604L32.8284 5.75736L34.2426 7.17157Z" fill="#005AA0"/>
<path d="M25.0503 16.364L27.1716 14.2426L25.7574 12.8284L23.636 14.9497L25.0503 16.364Z" fill="#005AA0"/>
<path d="M32.8284 14.2426L34.9497 16.364L36.364 14.9497L34.2426 12.8284L32.8284 14.2426Z" fill="#005AA0"/>
<path d="M23.636 5.05025L25.7574 7.17157L27.1716 5.75736L25.0503 3.63604L23.636 5.05025Z" fill="#005AA0"/>
<path d="M32 10C32 8.89549 31.1044 8 29.9998 8C28.8953 8 28 8.89537 28 10C28 11.1046 28.8953 12 29.9998 12C31.1044 12 32 11.1045 32 10ZM34 10C34 12.2091 32.209 14 29.9998 14C27.7906 14 26 12.2091 26 10C26 7.79085 27.7906 6 29.9998 6C32.209 6 34 7.79089 34 10Z" fill="#005AA0"/>
<path d="M17 19.789L19 19.7871C19.0005 20.1398 19.7382 21.0012 20.2288 21L22.768 21.0078C22.8687 21.0076 23.0061 20.859 23.0059 20.7007L23.0051 19.584L14.0001 14.5003L5 19.5837L5 20.8064C5.00019 20.9472 5.05168 21.0003 5.17031 21L7.75053 21C8.25146 20.999 8.99428 20.1495 9.00007 19.7924L10.9999 19.8073C11.0004 20.1484 11.7453 21.0012 12.2384 21H15.7497C16.2399 20.9978 17.0002 20.1264 17 19.789ZM15.7538 23L12.2409 23C11.4091 23.002 10.5988 22.5514 9.99657 21.9265C9.39512 22.549 8.58692 22.9983 7.75261 23L5.17276 23C3.93582 23.003 3.00163 22.0406 3 20.8078L3 18.4163L13.9999 12.2035L25.0044 18.416L25.0059 20.6987C25.0075 21.9281 24.012 23.0048 22.7674 23.0078L20.2282 23C19.3951 23.0021 18.589 22.5485 17.9906 21.9202C17.3869 22.5453 16.5786 22.9979 15.7538 23Z" fill="#005AA0"/>
<path d="M13 23V34H15L15 23H13Z" fill="#005AA0"/>
<path d="M37 35C34.8408 35 33.8173 34.6127 31.8247 33.3545C29.5415 31.9127 28.1868 31.4 25.5824 31.4C22.9762 31.4 21.619 31.9124 19.3289 33.3536C17.3287 34.6124 16.3022 35 14.1414 35H3V37H14.1414C16.7469 37 18.1039 36.4876 20.3938 35.0466C22.3942 33.7877 23.421 33.4 25.5824 33.4C27.741 33.4 28.7642 33.7873 30.7565 35.0453C33.04 36.4872 34.395 37 37 37V35Z" fill="#005AA0"/>
</svg>
