<svg width="40" height="40" viewBox="0 0 40 40" fill="none" xmlns="http://www.w3.org/2000/svg">
<path d="M29.5455 2C29.5455 4.88 32.2727 7.76 35 7.76V20.72C35 27.44 30 33.2 20 38C10 33.2 5 27.44 5 20.72V7.76C7.72727 7.76 10.4545 4.88 10.4545 2H29.5455ZM27.8445 4H12.1555C11.4163 6.47869 9.38878 8.62368 7 9.42484V20.72C7 26.3452 11.2102 31.3711 20 35.7727C28.7898 31.3711 33 26.3452 33 20.72V9.42484C30.6112 8.62368 28.5837 6.47869 27.8445 4ZM23.9804 13.2929L25.3946 14.7071L21.602 18.5L25.3946 22.2929L23.9804 23.7071L20.187 19.914L16.3946 23.7071L14.9804 22.2929L18.773 18.5L14.9804 14.7071L16.3946 13.2929L20.187 17.085L23.9804 13.2929Z" fill="#005AA0"/>
</svg>
