<svg width="20" height="20" viewBox="0 0 20 20" fill="none" xmlns="http://www.w3.org/2000/svg">
<path d="M11.4138 9.99969L14.4248 13.0107L13.0108 14.4247L9.99983 11.4137L6.98883 14.4247L5.57483 13.0107L8.58583 9.99969L5.58583 6.99969L6.99983 5.58569L9.99983 8.58569L12.9998 5.58569L14.4138 6.99969L11.4138 9.99969Z" fill="#005AA0"/>
<path fill-rule="evenodd" clip-rule="evenodd" d="M1 10C1 14.962 5.037 19 10 19C14.963 19 19 14.962 19 10C19 5.038 14.963 1 10 1C5.037 1 1 5.038 1 10ZM3 10C3 6.14 6.141 3 10 3C13.859 3 17 6.14 17 10C17 13.86 13.859 17 10 17C6.141 17 3 13.86 3 10Z" fill="#005AA0"/>
</svg>
