<svg width="24" height="24" viewBox="0 0 24 24" fill="none" xmlns="http://www.w3.org/2000/svg">
<path fill-rule="evenodd" clip-rule="evenodd" d="M5 12C5 15.86 8.141 19 12 19C15.859 19 19 15.86 19 12C19 10.872 18.726 9.81 18.25 8.865C17.097 6.577 14.732 5 12 5C9.268 5 6.903 6.577 5.75 8.865C5.274 9.81 5 10.872 5 12ZM12 3C14.428 3 16.63 3.97 18.25 5.538C19.942 7.175 21 9.465 21 12C21 16.962 16.963 21 12 21C7.037 21 3 16.962 3 12C3 9.465 4.058 7.175 5.75 5.538C7.37 3.97 9.572 3 12 3ZM11 14.2498V10.7998H13V14.2498V16.9998H11V14.2498ZM10.75 7.9999C10.75 7.3099 11.31 6.7499 12 6.7499C12.69 6.7499 13.25 7.3099 13.25 7.9999C13.25 8.6899 12.69 9.2499 12 9.2499C11.31 9.2499 10.75 8.6899 10.75 7.9999Z" fill="#005AA0"/>
</svg>
