<svg width="24" height="24" viewBox="0 0 24 24" fill="none" xmlns="http://www.w3.org/2000/svg">
<path fill-rule="evenodd" clip-rule="evenodd" d="M3 12C3 7.038 7.038 3 12 3C16.962 3 21 7.038 21 12C21 16.962 16.962 21 12 21C7.038 21 3 16.962 3 12ZM5 12C5 15.86 8.14 19 12 19C15.86 19 19 15.86 19 12C19 8.14 15.86 5 12 5C8.14 5 5 8.14 5 12Z" fill="#005AA0"/>
<path fill-rule="evenodd" clip-rule="evenodd" d="M7 13V11H17V13H7Z" fill="#005AA0"/>
<mask id="mask0_1840_58490" style="mask-type:alpha" maskUnits="userSpaceOnUse" x="7" y="11" width="10" height="2">
<path fill-rule="evenodd" clip-rule="evenodd" d="M7 13V11H17V13H7Z" fill="white"/>
</mask>
<g mask="url(#mask0_1840_58490)">
</g>
</svg>
