<svg width="24" height="24" viewBox="0 0 24 24" fill="none" xmlns="http://www.w3.org/2000/svg">
<path fill-rule="evenodd" clip-rule="evenodd" d="M11 17H13V13H17V11H13V7H11V11H7V13H11V17Z" fill="#005AA0"/>
<mask id="mask0_1840_58528" style="mask-type:alpha" maskUnits="userSpaceOnUse" x="7" y="7" width="10" height="10">
<path fill-rule="evenodd" clip-rule="evenodd" d="M11 17H13V13H17V11H13V7H11V11H7V13H11V17Z" fill="white"/>
</mask>
<g mask="url(#mask0_1840_58528)">
</g>
<path fill-rule="evenodd" clip-rule="evenodd" d="M3 12C3 7.038 7.038 3 12 3C16.962 3 21 7.038 21 12C21 16.962 16.962 21 12 21C7.038 21 3 16.962 3 12ZM5 12C5 15.86 8.14 19 12 19C15.86 19 19 15.86 19 12C19 8.14 15.86 5 12 5C8.14 5 5 8.14 5 12Z" fill="#005AA0"/>
</svg>
