<svg width="25" height="24" viewBox="0 0 25 24" fill="none" xmlns="http://www.w3.org/2000/svg">
	<path
		d="M12.2773 3.72852L15.2773 6.14821M12.2773 3.72852L9.28125 6.14821M12.2773 3.72852V10.1279"
		stroke="#B1B3B6"
		stroke-width="2"
	/>
	<path
		fill-rule="evenodd"
		clip-rule="evenodd"
		d="M10.2762 8.34583H6.85887C5.49857 8.34583 4.39258 9.45182 4.39258 10.8121V19.5337C4.39258 20.894 5.49857 22 6.85887 22H19.7536V18.5865H20.607V13.4662H19.7536V10.906H6.95274V12.6128H18.0468V13.4662H16.34V15.1729H18.9002V16.8797H16.34V18.5865H18.0468V20.2933H6.85887C6.43986 20.2933 6.09935 19.9528 6.09935 19.5337V10.8121C6.09935 10.3931 6.43986 10.0526 6.85887 10.0526H18.0468V8.34583H14.2762V10.0517H10.2762V8.34583Z"
		fill="#B1B3B6"
	/>
</svg>
