<svg width="24" height="24" viewBox="0 0 24 24" fill="none" xmlns="http://www.w3.org/2000/svg">
<g clip-path="url(#clip0_1797_58038)">
<path d="M18.2961 3.47367L19.1037 7.12194L21.0564 6.6897L19.8365 1.17859L8.64139 3.10874L8.98119 5.07966L18.2961 3.47367Z" fill="#B1B3B6"/>
<path d="M12 14.5C12 12.567 10.433 11 8.49999 11C6.56699 11 4.99999 12.567 4.99999 14.5C4.99999 16.433 6.56699 18 8.49999 18C10.433 18 12 16.433 12 14.5ZM6.99999 14.5C6.99999 13.6716 7.67156 13 8.49999 13C9.32841 13 9.99999 13.6716 9.99999 14.5C9.99999 15.3284 9.32841 16 8.49999 16C7.67156 16 6.99999 15.3284 6.99999 14.5Z" fill="#B1B3B6"/>
<path d="M11.8422 23.0077C13.361 23.0077 14.5922 21.7765 14.5922 20.2577C14.5922 18.7389 13.361 17.5077 11.8422 17.5077C10.3234 17.5077 9.09223 18.7389 9.09223 20.2577C9.09223 21.7765 10.3234 23.0077 11.8422 23.0077ZM11.8422 21.0077C11.428 21.0077 11.0922 20.6719 11.0922 20.2577C11.0922 19.8435 11.428 19.5077 11.8422 19.5077C12.2564 19.5077 12.5922 19.8435 12.5922 20.2577C12.5922 20.6719 12.2564 21.0077 11.8422 21.0077Z" fill="#B1B3B6"/>
<path d="M4.42436 11.5658L5.94069 4.71552L19.2601 7.43417L17.7438 14.2845L11.2764 12.9644L10.8764 14.924L19.2713 16.6375L21.6523 5.8812L4.41312 2.36249L2.0322 13.1188L6.1659 13.9626L6.56588 12.003L4.42436 11.5658Z" fill="#B1B3B6"/>
</g>
<defs>
<clipPath id="clip0_1797_58038">
<rect width="24" height="24" fill="white"/>
</clipPath>
</defs>
</svg>
