<svg width="24" height="24" viewBox="0 0 24 24" fill="none" xmlns="http://www.w3.org/2000/svg">
<path fill-rule="evenodd" clip-rule="evenodd" d="M7.6632 20.9465L11.3873 19.5219L18.1183 5.72136C18.1183 5.72136 17.4229 4.00692 16.1873 3.40423C14.9516 2.80155 13.121 3.28402 13.121 3.28402L6.38999 17.0845L7.6632 20.9465ZM8.28452 17.004L14.2653 4.7808C14.2653 4.7808 14.9726 4.54695 15.4636 4.78642C15.9545 5.02589 16.3373 5.79135 16.3373 5.79135L10.3643 18.0616L8.6218 19.0349L8.28452 17.004Z" fill="#005AA0"/>
<path fill-rule="evenodd" clip-rule="evenodd" d="M13.039 5.65405L16.4989 7.34154L15.777 8.82165L12.3171 7.13416L13.039 5.65405Z" fill="#005AA0"/>
<path fill-rule="evenodd" clip-rule="evenodd" d="M8.3315 15.3059L11.7914 16.9934L11.0695 18.4735L7.6096 16.786L8.3315 15.3059Z" fill="#005AA0"/>
</svg>
